# xmcd
#
# Track frame offsets:
#	150
#	20598
#	31350
#	43712
#	55856
#	65520
#	75270
#	86136
#	109755
#	124081
#	137920
#	151008
#	162066
#	173703
#	184612
#	206158
#	228927
#	243051
#	261613
#	272858
#
# Disc length: 3778 seconds
#
# Revision: 2
# Processed by: cddbd v1.5.2PL0 Copyright (c) Steve Scherf et al.
# Submitted via: EZCDAudioConverter 4.0.2.1
#
DISCID=0c0ec014
DTITLE=Varios Artistas - Folk and Country Music CD3
DYEAR=2015
DGENRE=Country
TTITLE0=Donovan - Sunshine Superman
TTITLE1=Credence Clearwater Revival - Who'll Stop The Rain
TTITLE2=Simon and Garfunkel - Bleecker Street
TTITLE3=Patsy Cline - Crazy
TTITLE4=Patsy Cline - Dont Come Home a Drinkin
TTITLE5=Johnny Horton - Got The Bull By The Horns
TTITLE6=Statler Brothers - Flowers on the Wall
TTITLE7=Credence Clearwater Revival - Born in the Bayou
TTITLE8=Cat Stevens - Granny
TTITLE9=Bob Dylan - I Want You
TTITLE10=The Turtles - Happy Together
TTITLE11=Floyd Cramer - Last Date
TTITLE12=George Jones - She Thinks I Still Care
TTITLE13=Skeeter Davis - Tell Tommy I Love Him
TTITLE14=James Taylor - Suite for 20G
TTITLE15=Bob Dylan - Mr. Tambourine Man
TTITLE16=Credence Clearwater Revival - Lodi
TTITLE17=Neil Young - The Losing End
TTITLE18=Johnny Horton - The Same Old Tale The Crow Told Me
TTITLE19=Johnny Cash - Wide Open Road
EXTD=
EXTT0=
EXTT1=
EXTT2=
EXTT3=
EXTT4=
EXTT5=
EXTT6=
EXTT7=
EXTT8=
EXTT9=
EXTT10=
EXTT11=
EXTT12=
EXTT13=
EXTT14=
EXTT15=
EXTT16=
EXTT17=
EXTT18=
EXTT19=
PLAYORDER=
